<?xml version="1.0" encoding="utf-8"?>
<!-- Generator: Adobe Illustrator 26.0.1, SVG Export Plug-In . SVG Version: 6.00 Build 0)  -->
<svg version="1.1" id="Layer_1" xmlns="http://www.w3.org/2000/svg" xmlns:xlink="http://www.w3.org/1999/xlink" x="0px" y="0px"
	 viewBox="0 0 218 218" style="enable-background:new 0 0 218 218;" xml:space="preserve">
<style type="text/css">
	.st0{fill:#EB0028;}
</style>
<path class="st0" d="M209.3,170.9L155,116.5c5.1-10.6,8-22.5,8-35C163,36.5,126.5,0,81.5,0S0,36.5,0,81.5S36.5,163,81.5,163
	c12.6,0,24.4-2.9,35.1-8l54.4,54.4c10.6,10.6,27.8,10.6,38.4,0C219.9,198.7,219.9,181.5,209.3,170.9L209.3,170.9z M18.1,81.5
	c0-35,28.4-63.4,63.4-63.4s63.4,28.4,63.4,63.4c0,35-28.4,63.4-63.4,63.4S18.1,116.5,18.1,81.5z M196.5,196.5
	c-3.5,3.5-9.3,3.5-12.8,0c0,0,0,0,0,0l-51.4-51.4c4.7-3.8,9-8.1,12.8-12.8l51.4,51.4c1.7,1.7,2.7,4,2.7,6.4S198.2,194.8,196.5,196.5
	L196.5,196.5z"/>
</svg>
